<svg width="8" height="13" viewBox="0 0 8 13" fill="none" xmlns="http://www.w3.org/2000/svg">
<path d="M7.18727 7.09522C7.33437 6.92913 7.41479 6.72079 7.41479 6.50579C7.41479 6.29079 7.33437 6.08245 7.18727 5.91636L2.3564 0.34691C2.27386 0.251554 2.17183 0.172276 2.05617 0.113636C1.94051 0.0549955 1.81351 0.0181475 1.68246 0.00520802C1.55141 -0.00773048 1.41889 0.00349426 1.29253 0.0382404C1.16617 0.0729856 1.04845 0.130566 0.946143 0.207671C0.843398 0.284272 0.757977 0.378964 0.694792 0.486303C0.631607 0.593641 0.591903 0.711512 0.577961 0.833138C0.564019 0.954763 0.576115 1.07775 0.613554 1.19502C0.650992 1.31229 0.713035 1.42154 0.796116 1.51649L5.12689 6.50115L0.646089 11.4765C0.47632 11.6661 0.394643 11.9105 0.419027 12.1559C0.443411 12.4014 0.571859 12.6278 0.776112 12.7853C0.980366 12.9429 1.24369 13.0187 1.50817 12.9961C1.77264 12.9734 2.0166 12.8542 2.18637 12.6647L7.18727 7.09522Z" fill="#0077FF"/>
</svg>
