<svg width="227" height="29" viewBox="0 0 227 29" fill="none" xmlns="http://www.w3.org/2000/svg">
<path d="M46.3257 28.6296H41.041C39.0425 28.6296 38.4403 27.0131 34.8578 23.4334C31.7268 20.4203 30.4044 20.0456 29.6124 20.0456C28.517 20.0456 28.2183 20.3463 28.2183 21.8517V26.5969C28.2183 27.8803 27.8015 28.6319 24.4435 28.6319C21.1858 28.4133 18.0267 27.4251 15.2265 25.7486C12.4262 24.072 10.0649 21.7552 8.33696 18.9888C4.23567 13.889 1.38118 7.90475 0 1.51111C0 0.720241 0.301057 0.00337225 1.81097 0.00337225H7.09105C8.44812 0.00337225 8.93676 0.60693 9.4694 2.00136C12.033 9.53542 16.4076 16.089 18.1838 16.089C18.8647 16.089 19.1611 15.7884 19.1611 14.0933V6.33263C18.9365 2.79222 17.0537 2.49391 17.0537 1.2128C17.0775 0.87481 17.2324 0.559405 17.4853 0.333579C17.7383 0.107752 18.0695 -0.0107034 18.4085 0.00337225H26.7084C27.8431 0.00337225 28.2183 0.567617 28.2183 1.92273V12.3983C28.2183 13.5291 28.7046 13.9037 29.0474 13.9037C29.7282 13.9037 30.2516 13.5291 31.4998 12.285C34.1743 9.02588 36.3602 5.39587 37.9888 1.5088C38.1547 1.04159 38.4694 0.641598 38.8848 0.370106C39.3001 0.0986142 39.7932 -0.0293983 40.2884 0.00568456H45.5708C47.1548 0.00568456 47.4906 0.796554 47.1548 1.92504C45.233 6.22232 42.8557 10.3017 40.0637 14.0933C39.494 14.9605 39.2671 15.4114 40.0637 16.4289C40.5871 17.2198 42.4398 18.7645 43.6834 20.2329C45.4943 22.0367 46.9973 24.1225 48.1344 26.4073C48.5883 27.878 47.8333 28.6296 46.3257 28.6296Z" fill="white"/>
<path d="M76.5739 28.6032H72.8518L70.0459 25.74C68.8815 26.8281 67.7648 27.6297 66.6959 28.1451C65.6461 28.6414 64.5867 28.8896 63.5178 28.8896C62.4298 28.8896 61.4467 28.67 60.5687 28.231C59.7097 27.792 59.0321 27.1812 58.5358 26.3986C58.0396 25.5969 57.7914 24.6902 57.7914 23.6786C57.7914 22.6669 58.1064 21.7411 58.7363 20.9013C59.3853 20.0614 60.4924 19.1547 62.0576 18.1812L62.3725 17.9808L62.0576 17.6372C61.2368 16.8164 60.6355 16.0625 60.2538 15.3753C59.8911 14.6881 59.7097 13.9437 59.7097 13.142C59.7097 12.2067 59.9293 11.3668 60.3683 10.6224C60.8264 9.87799 61.4563 9.2958 62.258 8.87587C63.0597 8.45594 63.9664 8.24597 64.978 8.24597C65.9706 8.24597 66.8582 8.45594 67.6408 8.87587C68.4234 9.27672 69.0342 9.83981 69.4732 10.5652C69.9313 11.2905 70.1604 12.1017 70.1604 12.9989C70.1604 13.8769 69.8931 14.6977 69.3587 15.4612C68.8242 16.2247 67.8985 17.036 66.5814 17.8949L66.2092 18.124L70.189 22.1324C70.7998 21.4262 71.7351 20.2618 72.9949 18.6393H76.1158C74.646 20.6245 73.2335 22.371 71.8783 23.879L76.5739 28.6032ZM64.6344 16.5206L64.749 16.4633C65.7415 15.8334 66.4573 15.2703 66.8963 14.774C67.3354 14.2587 67.5549 13.686 67.5549 13.0561C67.5549 12.3308 67.3067 11.7391 66.8105 11.2809C66.3333 10.8228 65.7129 10.5938 64.9494 10.5938C64.1668 10.5938 63.5273 10.8228 63.031 11.2809C62.5538 11.7391 62.3153 12.3212 62.3153 13.0275C62.3153 13.5047 62.4393 13.9533 62.6875 14.3732C62.9547 14.774 63.3842 15.2703 63.9759 15.862L64.6344 16.5206ZM63.9186 26.3699C64.6249 26.3699 65.3311 26.1982 66.0374 25.8546C66.7436 25.4919 67.5263 24.9002 68.3852 24.0794L63.9759 19.5842L63.6037 19.8419C62.5538 20.529 61.7999 21.1685 61.3418 21.7602C60.9027 22.3519 60.6832 22.9628 60.6832 23.5927C60.6832 24.3943 60.9791 25.0624 61.5708 25.5969C62.1816 26.1123 62.9642 26.3699 63.9186 26.3699Z" fill="white" fill-opacity="0.5"/>
<path d="M99.9662 28.6319H96.1745V6.1763H87.1555V2.67912H109.022V6.1763H99.9662V28.6319Z" fill="white"/>
<path d="M126.676 18.987C126.676 19.4779 126.663 19.8582 126.639 20.1282H110.92C111.116 21.8216 111.779 23.1714 112.908 24.1776C114.037 25.1838 115.472 25.6869 117.215 25.6869C118.417 25.6869 119.485 25.4537 120.417 24.9874C121.375 24.4966 122.099 23.8585 122.589 23.0732L125.976 23.6254C125.24 25.3433 124.05 26.6685 122.405 27.6011C120.786 28.5337 118.982 29 116.994 29C115.104 29 113.411 28.5828 111.914 27.7484C110.417 26.8894 109.251 25.7114 108.417 24.2144C107.582 22.7173 107.165 21.024 107.165 19.1343C107.165 17.22 107.582 15.5144 108.417 14.0173C109.251 12.5203 110.405 11.3546 111.877 10.5202C113.35 9.66121 115.031 9.23173 116.92 9.23173C118.785 9.23173 120.454 9.66121 121.927 10.5202C123.424 11.3546 124.59 12.5203 125.424 14.0173C126.258 15.4898 126.676 17.1464 126.676 18.987ZM116.92 12.4344C115.472 12.4344 114.221 12.8639 113.165 13.7228C112.135 14.5818 111.448 15.7353 111.104 17.1832H122.737C122.418 15.7598 121.73 14.6186 120.675 13.7597C119.644 12.8762 118.393 12.4344 116.92 12.4344Z" fill="white"/>
<path d="M138.924 29C137.034 29 135.329 28.5828 133.807 27.7484C132.31 26.8894 131.144 25.7114 130.31 24.2144C129.476 22.7173 129.058 21.024 129.058 19.1343C129.058 17.22 129.476 15.5144 130.31 14.0173C131.144 12.5203 132.31 11.3546 133.807 10.5202C135.304 9.66121 137.01 9.23173 138.924 9.23173C140.961 9.23173 142.777 9.72256 144.372 10.7042C145.992 11.6859 147.146 13.097 147.833 14.9377L144.446 15.4898C144.004 14.6063 143.305 13.8946 142.348 13.3547C141.415 12.8148 140.347 12.5448 139.145 12.5448C137.28 12.5448 135.758 13.1584 134.58 14.3855C133.427 15.6125 132.85 17.1955 132.85 19.1343C132.85 21.0731 133.427 22.656 134.58 23.8831C135.758 25.0856 137.28 25.6869 139.145 25.6869C140.397 25.6869 141.501 25.4047 142.458 24.8402C143.44 24.2757 144.151 23.5272 144.593 22.5946L147.98 23.1468C147.293 25.012 146.115 26.4599 144.446 27.4907C142.802 28.4969 140.961 29 138.924 29Z" fill="white"/>
<path d="M151.305 28.6319V2.67912H154.913V12.1767C155.551 11.2441 156.349 10.5202 157.306 10.0048C158.287 9.48942 159.355 9.23173 160.508 9.23173C161.883 9.23173 163.11 9.57531 164.19 10.2625C165.294 10.9251 166.153 11.8577 166.767 13.0602C167.38 14.2382 167.687 15.5757 167.687 17.0728V28.6319H164.079V17.4041C164.079 15.9561 163.662 14.7781 162.828 13.8701C162.018 12.9621 160.963 12.508 159.662 12.508C158.312 12.508 157.183 12.9743 156.275 13.9069C155.367 14.8149 154.913 15.9807 154.913 17.4041V28.6319H151.305Z" fill="white"/>
<path d="M179.949 9.23173C182.305 9.23173 184.158 10.0048 185.508 11.5509C186.882 13.0725 187.569 15.2076 187.569 17.9563V28.6319H184.992L184.146 25.6501C183.532 26.6072 182.71 27.4048 181.679 28.0429C180.649 28.681 179.409 29 177.961 29C176.685 29 175.544 28.7423 174.538 28.2269C173.532 27.7116 172.746 26.9999 172.182 26.0918C171.617 25.1592 171.335 24.1162 171.335 22.9628C171.335 21.1712 172.047 19.7355 173.47 18.6557C174.894 17.5759 176.955 17.036 179.655 17.036H183.962C183.864 15.5389 183.446 14.3855 182.71 13.5756C181.974 12.7412 180.992 12.324 179.765 12.324C178.833 12.324 178.01 12.5448 177.299 12.9866C176.587 13.4283 176.047 14.0051 175.679 14.7168L172.329 14.1646C172.82 12.643 173.765 11.4405 175.164 10.557C176.562 9.67348 178.158 9.23173 179.949 9.23173ZM178.734 25.9446C180.281 25.9446 181.532 25.4415 182.489 24.4353C183.471 23.4045 183.962 21.9934 183.962 20.2018V19.981H179.765C176.575 19.981 174.98 20.9381 174.98 22.8523C174.98 23.7849 175.323 24.5334 176.01 25.0979C176.697 25.6623 177.605 25.9446 178.734 25.9446Z" fill="white"/>
<path d="M199.829 9.23173C202.185 9.23173 204.038 10.0048 205.388 11.5509C206.762 13.0725 207.45 15.2076 207.45 17.9563V28.6319H204.873L204.026 25.6501C203.412 26.6072 202.59 27.4048 201.56 28.0429C200.529 28.681 199.289 29 197.841 29C196.565 29 195.424 28.7423 194.418 28.2269C193.412 27.7116 192.626 26.9999 192.062 26.0918C191.497 25.1592 191.215 24.1162 191.215 22.9628C191.215 21.1712 191.927 19.7355 193.35 18.6557C194.774 17.5759 196.835 17.036 199.535 17.036H203.842C203.744 15.5389 203.327 14.3855 202.59 13.5756C201.854 12.7412 200.872 12.324 199.645 12.324C198.713 12.324 197.891 12.5448 197.179 12.9866C196.467 13.4283 195.927 14.0051 195.559 14.7168L192.209 14.1646C192.7 12.643 193.645 11.4405 195.044 10.557C196.443 9.67348 198.038 9.23173 199.829 9.23173ZM198.615 25.9446C200.161 25.9446 201.412 25.4415 202.369 24.4353C203.351 23.4045 203.842 21.9934 203.842 20.2018V19.981H199.645C196.455 19.981 194.86 20.9381 194.86 22.8523C194.86 23.7849 195.203 24.5334 195.89 25.0979C196.578 25.6623 197.486 25.9446 198.615 25.9446Z" fill="white"/>
<path d="M218.973 29C216.863 29 215.096 28.5092 213.672 27.5275C212.249 26.5458 211.329 25.2083 210.911 23.5149L214.372 22.9628C214.715 23.8953 215.304 24.6193 216.139 25.1347C216.973 25.6255 217.979 25.8709 219.157 25.8709C220.213 25.8709 221.096 25.6746 221.808 25.2819C222.519 24.8893 222.875 24.288 222.875 23.4781C222.875 22.7419 222.519 22.1774 221.808 21.7848C221.121 21.3921 220.016 20.9749 218.495 20.5331C217.145 20.1405 216.016 19.7478 215.108 19.3551C214.2 18.9379 213.427 18.3612 212.789 17.625C212.175 16.8642 211.868 15.8948 211.868 14.7168C211.868 12.9989 212.531 11.6614 213.856 10.7042C215.206 9.72256 216.887 9.23173 218.9 9.23173C220.716 9.23173 222.286 9.69802 223.612 10.6306C224.961 11.5386 225.918 12.8025 226.483 14.4223L223.133 14.9745C222.716 14.1401 222.151 13.502 221.44 13.0602C220.728 12.5939 219.894 12.3608 218.936 12.3608C218.004 12.3608 217.206 12.5571 216.544 12.9498C215.906 13.3424 215.586 13.8946 215.586 14.6063C215.586 15.3426 215.942 15.9193 216.654 16.3365C217.39 16.7537 218.495 17.1709 219.967 17.5882C221.317 17.9808 222.446 18.3858 223.354 18.803C224.286 19.2202 225.06 19.7969 225.673 20.5331C226.287 21.2694 226.593 22.2142 226.593 23.3677C226.593 24.423 226.299 25.3801 225.71 26.2391C225.121 27.0735 224.25 27.7484 223.096 28.2637C221.943 28.7546 220.568 29 218.973 29Z" fill="white"/>
</svg>
