<svg width="23" height="28" viewBox="0 0 23 28" fill="none" xmlns="http://www.w3.org/2000/svg">
<path fill-rule="evenodd" clip-rule="evenodd" d="M16.9587 11.8477C16.9587 13.2032 16.4202 14.5033 15.4617 15.4618C14.5032 16.4203 13.2031 16.9588 11.8476 16.9588C10.492 16.9588 9.19201 16.4203 8.23349 15.4618C7.27498 14.5033 6.73648 13.2032 6.73648 11.8477C6.73648 10.4921 7.27498 9.19209 8.23349 8.23357C9.19201 7.27505 10.492 6.73656 11.8476 6.73656C13.2031 6.73656 14.5032 7.27505 15.4617 8.23357C16.4202 9.19209 16.9587 10.4921 16.9587 11.8477ZM14.4031 11.8477C14.4031 12.5254 14.1339 13.1755 13.6546 13.6547C13.1754 14.134 12.5254 14.4032 11.8476 14.4032C11.1698 14.4032 10.5198 14.134 10.0405 13.6547C9.56128 13.1755 9.29204 12.5254 9.29204 11.8477C9.29204 11.1699 9.56128 10.5199 10.0405 10.0406C10.5198 9.56136 11.1698 9.29212 11.8476 9.29212C12.5254 9.29212 13.1754 9.56136 13.6546 10.0406C14.1339 10.5199 14.4031 11.1699 14.4031 11.8477Z" fill="#0077FF"/>
<path fill-rule="evenodd" clip-rule="evenodd" d="M3.57012 19.8287C1.92285 18.2603 0.777667 16.2386 0.279373 14.0194C-0.218922 11.8002 -0.0479438 9.48301 0.770686 7.36095C1.58932 5.23888 3.01883 3.40722 4.87845 2.0976C6.73808 0.78798 8.94429 0.059212 11.2181 0.00345692C13.4919 -0.0522982 15.7312 0.567464 17.6528 1.78437C19.5743 3.00127 21.0919 4.76067 22.0136 6.84006C22.9352 8.91945 23.2195 11.2254 22.8306 13.4664C22.4417 15.7074 21.397 17.7828 19.8286 19.43L11.8987 27.7586L3.57012 19.8287ZM17.9783 17.6679L11.8105 24.1463L5.33217 17.9785C4.05103 16.7586 3.16038 15.1862 2.77284 13.4602C2.38531 11.7342 2.51829 9.93197 3.15498 8.28151C3.79167 6.63106 4.90347 5.20646 6.34979 4.18786C7.79611 3.16927 9.512 2.60242 11.2805 2.559C13.0489 2.51558 14.7906 2.99753 16.2851 3.94392C17.7797 4.89031 18.9601 6.25863 19.677 7.87585C20.3939 9.49307 20.6152 11.2866 20.3128 13.0295C20.0105 14.7725 19.1981 16.3867 17.9783 17.6679Z" fill="#0077FF"/>
</svg>
