<svg width="21" height="21" viewBox="0 0 21 21" fill="none" xmlns="http://www.w3.org/2000/svg">
<path d="M19.7955 19.7917L13.5303 13.5278M1 8.30787C1 9.26755 1.18906 10.2178 1.55639 11.1045C1.92372 11.9911 2.46212 12.7967 3.14086 13.4753C3.81959 14.1539 4.62537 14.6922 5.51218 15.0595C6.39899 15.4267 7.34947 15.6157 8.30934 15.6157C9.26922 15.6157 10.2197 15.4267 11.1065 15.0595C11.9933 14.6922 12.7991 14.1539 13.4778 13.4753C14.1566 12.7967 14.695 11.9911 15.0623 11.1045C15.4296 10.2178 15.6187 9.26755 15.6187 8.30787C15.6187 7.34819 15.4296 6.3979 15.0623 5.51127C14.695 4.62464 14.1566 3.81902 13.4778 3.14043C12.7991 2.46183 11.9933 1.92353 11.1065 1.55628C10.2197 1.18902 9.26922 1 8.30934 1C7.34947 1 6.39899 1.18902 5.51218 1.55628C4.62537 1.92353 3.81959 2.46183 3.14086 3.14043C2.46212 3.81902 1.92372 4.62464 1.55639 5.51127C1.18906 6.3979 1 7.34819 1 8.30787Z" stroke="#0077FF" stroke-width="1.50333" stroke-linecap="round" stroke-linejoin="round"/>
</svg>
